#N canvas -954 305 353 408 10;
#X obj 84 28 inlet;
#X obj 46 362 outlet~;
#X obj 266 362 outlet~;
#X obj 84 65 filterMessage, f 23;
#X obj 217 203 s goToLine;
#X obj 232 88 spigot 1;
#X obj 207 88 b;
#X obj 85 204 pack 0 0 0 0 0 0 0, f 19;
#X obj 217 119 f;
#X obj 46 345 sampler;
#X msg 85 290 48 90 1671.75 6 484.694 0 0, f 31;
#X obj 85 249 prepend set;
#X msg 91 227 bang;
#X floatatom 195 248 8 0 0 0 - - -, f 8;
#X obj 168 273 metro;
#X obj 168 249 tgl 15 0 empty empty empty 17 7 0 10 -262144 -1 -1 0
1;
#X connect 0 0 3 0;
#X connect 3 0 7 0;
#X connect 3 1 7 1;
#X connect 3 2 7 2;
#X connect 3 2 13 0;
#X connect 3 3 7 3;
#X connect 3 4 7 4;
#X connect 3 5 7 5;
#X connect 3 6 7 6;
#X connect 3 7 5 0;
#X connect 3 7 6 0;
#X connect 5 0 8 1;
#X connect 6 0 8 0;
#X connect 7 0 11 0;
#X connect 7 0 12 0;
#X connect 8 0 4 0;
#X connect 9 0 1 0;
#X connect 9 0 2 0;
#X connect 10 0 9 1;
#X connect 11 0 10 0;
#X connect 12 0 10 0;
#X connect 13 0 14 1;
#X connect 14 0 10 0;
#X connect 15 0 14 0;
