#N canvas 289 420 724 121 10;
#X obj 51 83 outlet;
#X obj 51 27 inlet;
#X obj 51 48 list split 1;
#X obj 130 48 list split 1;
#X obj 208 48 list split 1;
#X obj 286 48 list split 1;
#X obj 364 48 list split 1;
#X obj 442 48 list split 1;
#X obj 130 83 outlet;
#X obj 208 83 outlet;
#X obj 286 83 outlet;
#X obj 364 83 outlet;
#X obj 442 83 outlet;
#X obj 520 48 list split 1;
#X obj 520 83 outlet;
#X obj 598 48 list split 1;
#X obj 598 83 outlet;
#X obj 51 66 sel -;
#X obj 130 66 sel -;
#X obj 208 66 sel -;
#X obj 286 66 sel -;
#X obj 364 66 sel -;
#X obj 442 65 sel -;
#X obj 520 66 sel -;
#X obj 598 66 sel -;
#X connect 1 0 2 0;
#X connect 2 0 17 0;
#X connect 2 1 3 0;
#X connect 3 0 18 0;
#X connect 3 1 4 0;
#X connect 4 0 19 0;
#X connect 4 1 5 0;
#X connect 5 0 20 0;
#X connect 5 1 6 0;
#X connect 6 0 21 0;
#X connect 6 1 7 0;
#X connect 7 0 22 0;
#X connect 7 1 13 0;
#X connect 13 0 23 0;
#X connect 13 1 15 0;
#X connect 15 0 24 0;
#X connect 17 1 0 0;
#X connect 18 1 8 0;
#X connect 19 1 9 0;
#X connect 20 1 10 0;
#X connect 21 1 11 0;
#X connect 22 1 12 0;
#X connect 23 1 14 0;
#X connect 24 1 16 0;
