#N canvas -1550 -127 1209 697 10;
#X obj 0 0 cnv 15 1209 693 empty empty empty 20 12 0 14 -104026 -66577
0;
#X obj 0 0 cnv 15 173 693 empty empty empty 20 12 0 14 -158119 -66577
0;
#X obj 643 503 r setlevels;
#X obj 174 460 cnv 15 1035 233 empty empty Mixer 20 20 0 14 -49933
-260097 0;
#X obj 174 0 cnv 15 1035 167 empty empty Instruments 20 20 0 14 -49933
-260097 0;
#X obj 15 17 tgl 30 0 empty play empty 17 7 0 10 -260097 -1 -1 0 1
;
#X obj 15 98 metro;
#X obj 15 178 nbx 5 14 -1e+37 1e+37 0 0 empty empty empty 0 -8 0 10
-261338 -1 -1 288 256 0;
#X text 53 23 start/stop;
#X text 78 178 current line;
#N canvas 0 22 450 300 (subpatch) 0;
#X array sample1 31167 float 0 black #ff8000;
#X coords 0 1.02 31166 -1.02 60 40 1;
#X restore 196 53 graph;
#N canvas 0 22 450 300 (subpatch) 0;
#X array sample2 16671 float 0 black #ff8000;
#X coords 0 1.02 16670 -1.02 60 40 1;
#X restore 258 53 graph;
#N canvas 0 22 450 300 (subpatch) 0;
#X array sample3 9103 float 0 black #ff8000;
#X coords 0 1.02 9102 -1.02 60 40 1;
#X restore 320 53 graph;
#N canvas 0 22 450 300 (subpatch) 0;
#X array sample4 55807 float 0 #ff0000 #ff8000;
#X coords 0 1.02 55806 -1.02 60 40 1;
#X restore 382 53 graph;
#N canvas 0 22 450 300 (subpatch) 0;
#X array sample5 14239 float 0 black #ff8000;
#X coords 0 1.02 14238 -1.02 60 40 1;
#X restore 444 53 graph;
#N canvas 0 22 450 300 (subpatch) 0;
#X array sample6 58238 float 0 black #ff8000;
#X coords 0 1.02 58237 -1.02 60 40 1;
#X restore 506 53 graph;
#N canvas 0 22 450 300 (subpatch) 0;
#X array sample7 44991 float 0 black #ff8000;
#X coords 0 1.02 44990 -1.02 60 40 1;
#X restore 568 53 graph;
#N canvas 0 22 450 300 (subpatch) 0;
#X array sample8 39935 float 0 black #ff8000;
#X coords 0 1.02 39934 -1.02 60 40 1;
#X restore 630 53 graph;
#N canvas 0 22 450 300 (subpatch) 0;
#X array sample9 136959 float 0 black #ff8000;
#X coords 0 1.02 136958 -1.02 60 40 1;
#X restore 692 53 graph;
#N canvas 0 22 450 300 (subpatch) 0;
#X array sample10 40063 float 0 black #ff8000;
#X coords 0 1.02 40062 -1.02 60 40 1;
#X restore 754 53 graph;
#N canvas 0 22 450 300 (subpatch) 0;
#X array sample11 62079 float 0 black #ff8000;
#X coords 0 1.02 62078 -1.02 60 40 1;
#X restore 816 53 graph;
#N canvas 0 22 450 300 (subpatch) 0;
#X array sample12 253129 float 0 black #ff8000;
#X coords 0 1.02 253128 -1.02 60 40 1;
#X restore 878 53 graph;
#N canvas 0 22 450 300 (subpatch) 0;
#X array sample13 252565 float 0 black #ff8000;
#X coords 0 1.02 252564 -1.02 60 40 1;
#X restore 940 53 graph;
#N canvas 0 22 450 300 (subpatch) 0;
#X array sample14 16832 float 0 black #ff8000;
#X coords 0 1.02 16831 -1.02 60 40 1;
#X restore 1002 53 graph;
#N canvas 0 22 450 300 (subpatch) 0;
#X array sample15 12383 float 0 black #ff8000;
#X coords 0 1.02 12382 -1.02 60 40 1;
#X restore 1064 53 graph;
#N canvas 0 22 450 300 (subpatch) 0;
#X array sample16 78848 float 0 black #ff8000;
#X coords 0 1.02 78847 -1.02 60 40 1;
#X restore 1126 53 graph;
#N canvas 0 22 450 300 (subpatch) 0;
#X array sample17 129536 float 0 black #ff8000;
#X coords 0 1.02 129535 -1.02 60 40 1;
#X restore 196 107 graph;
#N canvas 0 22 450 300 (subpatch) 0;
#X array sample18 19667 float 0 black #ff8000;
#X coords 0 1.02 19666 -1.02 60 40 1;
#X restore 258 107 graph;
#N canvas 0 22 450 300 (subpatch) 0;
#X array sample19 26436 float 0 black #ff8000;
#X coords 0 1.02 26435 -1.02 60 40 1;
#X restore 320 107 graph;
#N canvas 0 22 450 300 (subpatch) 0;
#X array sample20 37675 float 0 #ff0000 #ff8000;
#X coords 0 1.02 37674 -1.02 60 40 1;
#X restore 382 107 graph;
#N canvas 0 22 450 300 (subpatch) 0;
#X array sample21 15453 float 0 black #ff8000;
#X coords 0 1.02 15452 -1.02 60 40 1;
#X restore 444 107 graph;
#N canvas 0 22 450 300 (subpatch) 0;
#X array sample22 24776 float 0 black #ff8000;
#X coords 0 1.02 24775 -1.02 60 40 1;
#X restore 506 107 graph;
#N canvas 0 22 450 300 (subpatch) 0;
#X array sample23 45932 float 0 black #ff8000;
#X coords 0 1.02 45931 -1.02 60 40 1;
#X restore 568 107 graph;
#N canvas 0 22 450 300 (subpatch) 0;
#X array sample24 12638 float 0 black #ff8000;
#X coords 0 1.02 12637 -1.02 60 40 1;
#X restore 630 107 graph;
#N canvas 0 22 450 300 (subpatch) 0;
#X array sample25 22048 float 0 black #ff8000;
#X coords 0 1.02 22047 -1.02 60 40 1;
#X restore 692 107 graph;
#N canvas 0 22 450 300 (subpatch) 0;
#X array sample26 59392 float 0 black #ff8000;
#X coords 0 1.02 59391 -1.02 60 40 1;
#X restore 754 107 graph;
#N canvas 0 22 450 300 (subpatch) 0;
#X array sample27 253129 float 0 black #ff8000;
#X coords 0 1.02 253128 -1.02 60 40 1;
#X restore 816 107 graph;
#N canvas 0 22 450 300 (subpatch) 0;
#X array sample28 176403 float 0 black #ff8000;
#X coords 0 1.02 176402 -1.02 60 40 1;
#X restore 878 107 graph;
#N canvas 0 22 450 300 (subpatch) 0;
#X array sample29 176403 float 0 black #ff8000;
#X coords 0 1.02 176402 -1.02 60 40 1;
#X restore 940 107 graph;
#N canvas 0 22 450 300 (subpatch) 0;
#X array sample30 176403 float 0 black #ff8000;
#X coords 0 1.02 176402 -1.02 60 40 1;
#X restore 1002 107 graph;
#N canvas 0 22 450 300 (subpatch) 0;
#X array sample31 176403 float 0 black #ff8000;
#X coords 0 1.02 176402 -1.02 60 40 1;
#X restore 1064 107 graph;
#N canvas 0 22 450 300 (subpatch) 0;
#X array sample32 176403 float 0 black #ff8000;
#X coords 0 1.02 176402 -1.02 60 40 1;
#X restore 1126 107 graph;
#X obj 35 217 loadbang;
#X obj 1145 520 vsl 30 100 0 1 0 0 empty mixer_master MASTER -3 -15
0 10 -79060 -260097 -260097 9900 1;
#X obj 223 520 vsl 20 100 0 1 0 0 empty mixer_ch2 2 7 -15 0 10 -24967
-260097 -261338 9900 1;
#X obj 252 520 vsl 20 100 0 1 0 0 empty mixer_ch3 3 7 -15 0 10 -24967
-260097 -261338 9900 1;
#X obj 281 520 vsl 20 100 0 1 0 0 empty mixer_ch4 4 7 -15 0 10 -24967
-260097 -261338 9900 1;
#X obj 310 520 vsl 20 100 0 1 0 0 empty mixer_ch5 5 7 -15 0 10 -24967
-260097 -261338 9900 1;
#X obj 339 520 vsl 20 100 0 1 0 0 empty mixer_ch6 6 7 -15 0 10 -24967
-260097 -261338 9900 1;
#X obj 368 520 vsl 20 100 0 1 0 0 empty mixer_ch7 7 7 -15 0 10 -24967
-260097 -261338 9900 1;
#X obj 397 520 vsl 20 100 0 1 0 0 empty mixer_ch8 8 7 -15 0 10 -24967
-260097 -261338 9900 1;
#X obj 426 520 vsl 20 100 0 1 0 0 empty mixer_ch9 9 7 -15 0 10 -24967
-260097 -261338 9900 1;
#X obj 455 520 vsl 20 100 0 1 0 0 empty mixer_ch10 10 4 -15 0 10 -24967
-260097 -261338 9900 1;
#X obj 484 520 vsl 20 100 0 1 0 0 empty mixer_ch11 11 4 -15 0 10 -24967
-260097 -261338 9900 1;
#X obj 513 520 vsl 20 100 0 1 0 0 empty mixer_ch12 12 4 -15 0 10 -24967
-260097 -261338 9900 1;
#X obj 542 520 vsl 20 100 0 1 0 0 empty mixer_ch13 13 4 -15 0 10 -24967
-260097 -261338 9900 1;
#X obj 571 520 vsl 20 100 0 1 0 0 empty mixer_ch14 14 4 -15 0 10 -24967
-260097 -261338 9900 1;
#X obj 600 520 vsl 20 100 0 1 0 0 empty mixer_ch15 15 4 -15 0 10 -24967
-260097 -261338 9900 1;
#X obj 629 520 vsl 20 100 0 1 0 0 empty mixer_ch16 16 4 -15 0 10 -24967
-260097 -261338 9900 1;
#X obj 194 520 vsl 20 100 0 1 0 0 empty mixer_ch1 1 7 -15 0 10 -24967
-260097 -261338 9900 1;
#X obj 194 658 dac~ 1 2, f 163;
#X obj 194 641 mixer, f 163;
#N canvas 115 499 192 263 counter 0;
#X obj 33 31 inlet;
#X obj 75 71 bng 15 250 50 0 empty empty empty 17 7 0 10 -262144 -1
-1;
#X obj 75 115 f;
#X obj 75 160 nbx 5 14 -1e+37 1e+37 0 0 empty empty empty 0 -8 0 10
-262144 -1 -1 288 256 0;
#X obj 125 116 + 1;
#X obj 75 204 outlet;
#X obj 90 31 r goToLine;
#X connect 0 0 1 0;
#X connect 1 0 2 0;
#X connect 2 0 4 0;
#X connect 2 0 3 0;
#X connect 3 0 5 0;
#X connect 4 0 2 1;
#X connect 6 0 2 1;
#X restore 15 131 pd counter;
#X floatatom 96 218 5 0 0 0 - pattern -, f 5;
#X obj 15 238 module_control;
#X text 193 189 module_control abstraction reads all essential text
files., f 31;
#X text 196 380 - s tempo;
#X text 196 291 - s ch1 ---> s ch64;
#X text 193 228 it splits all lines from the module file into individual
channels. these are outputed through the following sends:, f 31;
#X text 193 318 turns dsp on \, sets mixer levels and stores all samples
in the instruments table. it outputs the following sends:, f 31;
#X text 425 188 messages to receive from Unity:;
#X text 427 208 - play (bang);
#X floatatom 42 75 5 0 0 0 - tempo -, f 5;
#X text 427 224 - tempo (int in milliseconds);
#X text 427 240 - pattern (int);
#X text 196 410 - s goToLine;
#X text 196 395 - s totalLines;
#X obj 687 520 vsl 20 100 0 1 0 0 empty mixer_ch18 18 4 -15 0 10 -24967
-260097 -261338 9900 1;
#X obj 716 520 vsl 20 100 0 1 0 0 empty mixer_ch19 19 4 -15 0 10 -24967
-260097 -261338 9900 1;
#X obj 745 520 vsl 20 100 0 1 0 0 empty mixer_ch20 20 4 -15 0 10 -24967
-260097 -261338 9900 1;
#X obj 774 520 vsl 20 100 0 1 0 0 empty mixer_ch21 21 4 -15 0 10 -24967
-260097 -261338 9900 1;
#X obj 803 520 vsl 20 100 0 1 0 0 empty mixer_ch22 22 4 -15 0 10 -24967
-260097 -261338 9900 1;
#X obj 832 520 vsl 20 100 0 1 0 0 empty mixer_ch23 23 4 -15 0 10 -24967
-260097 -261338 9900 1;
#X obj 861 520 vsl 20 100 0 1 0 0 empty mixer_ch24 24 4 -15 0 10 -24967
-260097 -261338 9900 1;
#X obj 890 520 vsl 20 100 0 1 0 0 empty mixer_ch25 25 4 -15 0 10 -24967
-260097 -261338 9900 1;
#X obj 919 520 vsl 20 100 0 1 0 0 empty mixer_ch26 26 4 -15 0 10 -24967
-260097 -261338 9900 1;
#X obj 948 520 vsl 20 100 0 1 0 0 empty mixer_ch27 27 4 -15 0 10 -24967
-260097 -261338 9900 1;
#X obj 977 520 vsl 20 100 0 1 0 0 empty mixer_ch28 28 4 -15 0 10 -24967
-260097 -261338 9900 1;
#X obj 1006 520 vsl 20 100 0 1 0 0 empty mixer_ch29 29 4 -15 0 10 -24967
-260097 -261338 9900 1;
#X obj 1035 520 vsl 20 100 0 1 0 0 empty mixer_ch30 30 4 -15 0 10 -24967
-260097 -261338 9900 1;
#X obj 1064 520 vsl 20 100 0 1 0 0 empty mixer_ch32 31 4 -15 0 10 -24967
-260097 -261338 9900 1;
#X obj 1093 520 vsl 20 100 0 1 0 0 empty mixer_ch32 32 4 -15 0 10 -24967
-260097 -261338 9900 1;
#X obj 658 520 vsl 20 100 0 1 0 0 empty mixer_ch17 17 4 -15 0 10 -24967
-260097 -261338 9900 1;
#X text 427 256 - mixer_ch1 --> mixer_ch32 (float values: 0 to 1);
#X connect 2 0 59 0;
#X connect 2 0 44 0;
#X connect 2 0 45 0;
#X connect 2 0 46 0;
#X connect 2 0 47 0;
#X connect 2 0 48 0;
#X connect 2 0 49 0;
#X connect 2 0 50 0;
#X connect 2 0 51 0;
#X connect 2 0 52 0;
#X connect 2 0 53 0;
#X connect 2 0 54 0;
#X connect 2 0 55 0;
#X connect 2 0 56 0;
#X connect 2 0 57 0;
#X connect 2 0 58 0;
#X connect 2 0 92 0;
#X connect 2 0 77 0;
#X connect 2 0 78 0;
#X connect 2 0 79 0;
#X connect 2 0 80 0;
#X connect 2 0 81 0;
#X connect 2 0 82 0;
#X connect 2 0 83 0;
#X connect 2 0 84 0;
#X connect 2 0 85 0;
#X connect 2 0 86 0;
#X connect 2 0 87 0;
#X connect 2 0 88 0;
#X connect 2 0 89 0;
#X connect 2 0 90 0;
#X connect 2 0 91 0;
#X connect 2 0 43 0;
#X connect 5 0 6 0;
#X connect 6 0 62 0;
#X connect 7 0 64 0;
#X connect 42 0 64 1;
#X connect 42 0 64 2;
#X connect 42 0 64 3;
#X connect 43 0 61 32;
#X connect 44 0 61 1;
#X connect 45 0 61 2;
#X connect 46 0 61 3;
#X connect 47 0 61 4;
#X connect 48 0 61 5;
#X connect 49 0 61 6;
#X connect 50 0 61 7;
#X connect 51 0 61 8;
#X connect 52 0 61 9;
#X connect 53 0 61 10;
#X connect 54 0 61 11;
#X connect 55 0 61 12;
#X connect 56 0 61 13;
#X connect 57 0 61 14;
#X connect 58 0 61 15;
#X connect 59 0 61 0;
#X connect 61 0 60 0;
#X connect 61 1 60 1;
#X connect 62 0 7 0;
#X connect 63 0 64 4;
#X connect 72 0 6 1;
#X connect 77 0 61 17;
#X connect 78 0 61 18;
#X connect 79 0 61 19;
#X connect 80 0 61 20;
#X connect 81 0 61 21;
#X connect 82 0 61 22;
#X connect 83 0 61 23;
#X connect 84 0 61 24;
#X connect 85 0 61 25;
#X connect 86 0 61 26;
#X connect 87 0 61 27;
#X connect 88 0 61 28;
#X connect 89 0 61 29;
#X connect 90 0 61 30;
#X connect 91 0 61 31;
#X connect 92 0 61 16;
