#N canvas -1547 619 939 263 10;
#X obj 6 135 ch_out;
#X obj 6 163 *~;
#X obj 39 163 *~;
#X obj 21 111 inlet;
#X obj 72 135 ch_out;
#X obj 72 163 *~;
#X obj 105 163 *~;
#X obj 87 111 inlet;
#X obj 138 135 ch_out;
#X obj 138 163 *~;
#X obj 171 163 *~;
#X obj 153 111 inlet;
#X obj 204 135 ch_out;
#X obj 204 163 *~;
#X obj 237 163 *~;
#X obj 219 111 inlet;
#X obj 2155 180 *~;
#X obj 2201 180 *~;
#X obj 2170 151 inlet;
#X obj 6 78 r ch1;
#X obj 72 78 r ch2;
#X obj 138 78 r ch3;
#X obj 204 78 r ch4;
#X obj 2155 220 outlet~;
#X obj 2201 220 outlet~;
#X obj 269 135 ch_out;
#X obj 269 163 *~;
#X obj 302 163 *~;
#X obj 284 111 inlet;
#X obj 335 135 ch_out;
#X obj 335 163 *~;
#X obj 368 163 *~;
#X obj 350 111 inlet;
#X obj 401 135 ch_out;
#X obj 401 163 *~;
#X obj 434 163 *~;
#X obj 416 111 inlet;
#X obj 467 135 ch_out;
#X obj 467 163 *~;
#X obj 500 163 *~;
#X obj 482 111 inlet;
#X obj 269 78 r ch5;
#X obj 335 78 r ch6;
#X obj 401 78 r ch7;
#X obj 467 78 r ch8;
#X obj 532 135 ch_out;
#X obj 532 163 *~;
#X obj 565 163 *~;
#X obj 547 111 inlet;
#X obj 598 135 ch_out;
#X obj 598 163 *~;
#X obj 631 163 *~;
#X obj 613 111 inlet;
#X obj 664 135 ch_out;
#X obj 664 163 *~;
#X obj 697 163 *~;
#X obj 679 111 inlet;
#X obj 730 135 ch_out;
#X obj 730 163 *~;
#X obj 763 163 *~;
#X obj 745 111 inlet;
#X obj 795 135 ch_out;
#X obj 795 163 *~;
#X obj 828 163 *~;
#X obj 810 111 inlet;
#X obj 861 135 ch_out;
#X obj 861 163 *~;
#X obj 894 163 *~;
#X obj 876 111 inlet;
#X obj 927 135 ch_out;
#X obj 927 163 *~;
#X obj 960 163 *~;
#X obj 942 111 inlet;
#X obj 993 135 ch_out;
#X obj 993 163 *~;
#X obj 1026 163 *~;
#X obj 1008 111 inlet;
#X obj 532 78 r ch9;
#X obj 598 78 r ch10;
#X obj 664 78 r ch11;
#X obj 730 78 r ch12;
#X obj 795 78 r ch13;
#X obj 861 78 r ch14;
#X obj 927 78 r ch15;
#X obj 993 78 r ch16;
#X obj 1058 135 ch_out;
#X obj 1058 163 *~;
#X obj 1091 163 *~;
#X obj 1073 111 inlet;
#X obj 1124 135 ch_out;
#X obj 1124 163 *~;
#X obj 1157 163 *~;
#X obj 1139 111 inlet;
#X obj 1190 135 ch_out;
#X obj 1190 163 *~;
#X obj 1223 163 *~;
#X obj 1205 111 inlet;
#X obj 1256 135 ch_out;
#X obj 1256 163 *~;
#X obj 1289 163 *~;
#X obj 1271 111 inlet;
#X obj 1321 135 ch_out;
#X obj 1321 163 *~;
#X obj 1354 163 *~;
#X obj 1336 111 inlet;
#X obj 1387 135 ch_out;
#X obj 1387 163 *~;
#X obj 1420 163 *~;
#X obj 1402 111 inlet;
#X obj 1453 135 ch_out;
#X obj 1453 163 *~;
#X obj 1486 163 *~;
#X obj 1468 111 inlet;
#X obj 1519 135 ch_out;
#X obj 1519 163 *~;
#X obj 1552 163 *~;
#X obj 1534 111 inlet;
#X obj 1584 135 ch_out;
#X obj 1584 163 *~;
#X obj 1617 163 *~;
#X obj 1599 111 inlet;
#X obj 1650 135 ch_out;
#X obj 1650 163 *~;
#X obj 1683 163 *~;
#X obj 1665 111 inlet;
#X obj 1716 135 ch_out;
#X obj 1716 163 *~;
#X obj 1749 163 *~;
#X obj 1731 111 inlet;
#X obj 1782 135 ch_out;
#X obj 1782 163 *~;
#X obj 1815 163 *~;
#X obj 1797 111 inlet;
#X obj 1847 135 ch_out;
#X obj 1847 163 *~;
#X obj 1880 163 *~;
#X obj 1862 111 inlet;
#X obj 1913 135 ch_out;
#X obj 1913 163 *~;
#X obj 1946 163 *~;
#X obj 1928 111 inlet;
#X obj 1979 135 ch_out;
#X obj 1979 163 *~;
#X obj 2012 163 *~;
#X obj 1994 111 inlet;
#X obj 2045 135 ch_out;
#X obj 2045 163 *~;
#X obj 2078 163 *~;
#X obj 2060 111 inlet;
#X obj 1058 78 r ch17;
#X obj 1124 78 r ch18;
#X obj 1190 78 r ch19;
#X obj 1256 78 r ch20;
#X obj 1321 78 r ch21;
#X obj 1387 78 r ch22;
#X obj 1453 78 r ch23;
#X obj 1519 78 r ch24;
#X obj 1584 78 r ch25;
#X obj 1650 78 r ch26;
#X obj 1716 78 r ch27;
#X obj 1782 78 r ch28;
#X obj 1847 78 r ch29;
#X obj 1913 78 r ch30;
#X obj 1979 78 r ch31;
#X obj 2045 78 r ch32;
#X connect 0 0 1 0;
#X connect 0 1 2 0;
#X connect 1 0 16 0;
#X connect 2 0 17 0;
#X connect 3 0 1 1;
#X connect 3 0 2 1;
#X connect 4 0 5 0;
#X connect 4 1 6 0;
#X connect 5 0 16 0;
#X connect 6 0 17 0;
#X connect 6 0 16 0;
#X connect 7 0 5 1;
#X connect 7 0 6 1;
#X connect 8 0 9 0;
#X connect 8 1 10 0;
#X connect 9 0 16 0;
#X connect 9 0 17 0;
#X connect 10 0 17 0;
#X connect 10 0 16 0;
#X connect 11 0 9 1;
#X connect 11 0 10 1;
#X connect 12 0 13 0;
#X connect 12 1 14 0;
#X connect 13 0 16 0;
#X connect 14 0 17 0;
#X connect 15 0 13 1;
#X connect 15 0 14 1;
#X connect 16 0 23 0;
#X connect 17 0 24 0;
#X connect 18 0 16 1;
#X connect 18 0 17 1;
#X connect 19 0 0 0;
#X connect 20 0 4 0;
#X connect 21 0 8 0;
#X connect 22 0 12 0;
#X connect 25 0 26 0;
#X connect 25 1 27 0;
#X connect 26 0 16 0;
#X connect 27 0 17 0;
#X connect 28 0 26 1;
#X connect 28 0 27 1;
#X connect 29 0 30 0;
#X connect 29 1 31 0;
#X connect 30 0 16 0;
#X connect 31 0 17 0;
#X connect 32 0 30 1;
#X connect 32 0 31 1;
#X connect 33 0 34 0;
#X connect 33 1 35 0;
#X connect 34 0 16 0;
#X connect 35 0 17 0;
#X connect 36 0 34 1;
#X connect 36 0 35 1;
#X connect 37 0 38 0;
#X connect 37 1 39 0;
#X connect 38 0 16 0;
#X connect 39 0 17 0;
#X connect 40 0 38 1;
#X connect 40 0 39 1;
#X connect 41 0 25 0;
#X connect 42 0 29 0;
#X connect 43 0 33 0;
#X connect 44 0 37 0;
#X connect 45 0 46 0;
#X connect 45 1 47 0;
#X connect 46 0 16 0;
#X connect 47 0 17 0;
#X connect 48 0 46 1;
#X connect 48 0 47 1;
#X connect 49 0 50 0;
#X connect 49 1 51 0;
#X connect 50 0 16 0;
#X connect 51 0 17 0;
#X connect 52 0 50 1;
#X connect 52 0 51 1;
#X connect 53 0 54 0;
#X connect 53 1 55 0;
#X connect 54 0 16 0;
#X connect 55 0 17 0;
#X connect 56 0 54 1;
#X connect 56 0 55 1;
#X connect 57 0 58 0;
#X connect 57 1 59 0;
#X connect 58 0 16 0;
#X connect 59 0 17 0;
#X connect 60 0 58 1;
#X connect 60 0 59 1;
#X connect 61 0 62 0;
#X connect 61 1 63 0;
#X connect 62 0 16 0;
#X connect 63 0 17 0;
#X connect 64 0 62 1;
#X connect 64 0 63 1;
#X connect 65 0 66 0;
#X connect 65 1 67 0;
#X connect 66 0 16 0;
#X connect 67 0 17 0;
#X connect 68 0 66 1;
#X connect 68 0 67 1;
#X connect 69 0 70 0;
#X connect 69 1 71 0;
#X connect 70 0 16 0;
#X connect 71 0 17 0;
#X connect 72 0 70 1;
#X connect 72 0 71 1;
#X connect 73 0 74 0;
#X connect 73 1 75 0;
#X connect 74 0 16 0;
#X connect 75 0 17 0;
#X connect 76 0 74 1;
#X connect 76 0 75 1;
#X connect 77 0 45 0;
#X connect 78 0 49 0;
#X connect 79 0 53 0;
#X connect 80 0 57 0;
#X connect 81 0 61 0;
#X connect 82 0 65 0;
#X connect 83 0 69 0;
#X connect 84 0 73 0;
#X connect 85 0 86 0;
#X connect 85 1 87 0;
#X connect 88 0 86 1;
#X connect 88 0 87 1;
#X connect 89 0 90 0;
#X connect 89 1 91 0;
#X connect 92 0 90 1;
#X connect 92 0 91 1;
#X connect 93 0 94 0;
#X connect 93 1 95 0;
#X connect 96 0 94 1;
#X connect 96 0 95 1;
#X connect 97 0 98 0;
#X connect 97 1 99 0;
#X connect 100 0 98 1;
#X connect 100 0 99 1;
#X connect 101 0 102 0;
#X connect 101 1 103 0;
#X connect 104 0 102 1;
#X connect 104 0 103 1;
#X connect 105 0 106 0;
#X connect 105 1 107 0;
#X connect 108 0 106 1;
#X connect 108 0 107 1;
#X connect 109 0 110 0;
#X connect 109 1 111 0;
#X connect 112 0 110 1;
#X connect 112 0 111 1;
#X connect 113 0 114 0;
#X connect 113 1 115 0;
#X connect 116 0 114 1;
#X connect 116 0 115 1;
#X connect 117 0 118 0;
#X connect 117 1 119 0;
#X connect 120 0 118 1;
#X connect 120 0 119 1;
#X connect 121 0 122 0;
#X connect 121 1 123 0;
#X connect 124 0 122 1;
#X connect 124 0 123 1;
#X connect 125 0 126 0;
#X connect 125 1 127 0;
#X connect 128 0 126 1;
#X connect 128 0 127 1;
#X connect 129 0 130 0;
#X connect 129 1 131 0;
#X connect 132 0 130 1;
#X connect 132 0 131 1;
#X connect 133 0 134 0;
#X connect 133 1 135 0;
#X connect 136 0 134 1;
#X connect 136 0 135 1;
#X connect 137 0 138 0;
#X connect 137 1 139 0;
#X connect 140 0 138 1;
#X connect 140 0 139 1;
#X connect 141 0 142 0;
#X connect 141 1 143 0;
#X connect 144 0 142 1;
#X connect 144 0 143 1;
#X connect 145 0 146 0;
#X connect 145 1 147 0;
#X connect 148 0 146 1;
#X connect 148 0 147 1;
#X connect 149 0 85 0;
#X connect 150 0 89 0;
#X connect 151 0 93 0;
#X connect 152 0 97 0;
#X connect 153 0 101 0;
#X connect 154 0 105 0;
#X connect 155 0 109 0;
#X connect 156 0 113 0;
#X connect 157 0 117 0;
#X connect 158 0 121 0;
#X connect 159 0 125 0;
#X connect 160 0 129 0;
#X connect 161 0 133 0;
#X connect 162 0 137 0;
#X connect 163 0 141 0;
#X connect 164 0 145 0;
