#N canvas 326 306 1018 545 10;
#X obj 20 125 cnv 15 326 420 empty empty empty 20 12 0 14 -237178 -66577
0;
#X obj 679 86 cnv 15 128 21 empty empty empty 20 12 0 14 -105728 -66577
0;
#X obj 838 69 cnv 15 152 21 empty empty empty 20 12 0 14 -105728 -66577
0;
#X obj 513 99 cnv 15 146 21 empty empty empty 20 12 0 14 -105728 -66577
0;
#X obj 26 74 cnv 15 98 21 empty empty empty 20 12 0 14 -105728 -66577
0;
#X obj 28 31 inlet;
#X obj 28 160 s ch1;
#X obj 106 160 s ch2;
#X obj 184 160 s ch3;
#X obj 262 160 s ch4;
#X obj 28 211 s ch5;
#X obj 106 211 s ch6;
#X obj 184 211 s ch7;
#X obj 262 211 s ch8;
#X obj 28 76 coll module.txt;
#C restore;
#X obj 515 31 inlet;
#X msg 681 71 1, f 1;
#X msg 697 71 2, f 1;
#X obj 681 88 coll module_info.txt;
#C restore;
#X obj 681 154 s tempo;
#X obj 681 31 inlet;
#X obj 840 71 coll module_patterns.txt;
#C restore;
#X obj 840 31 inlet;
#X msg 395 95 \; pd dsp \$1;
#X obj 395 72 tgl 17 0 empty empty empty 17 7 0 10 -259674 -1 -1 1
1;
#X obj 418 72 s setlevels;
#X obj 395 31 inlet;
#X obj 840 100 s goToLine;
#X obj 745 154 s totalLines;
#X obj 236 31 netreceive 32000;
#X msg 236 50 \; tempo 97.4 \;, f 16;
#X obj 28 262 s ch9;
#X obj 106 262 s ch10;
#X obj 184 262 s ch11;
#X obj 262 262 s ch12;
#X obj 28 313 s ch13;
#X obj 106 313 s ch14;
#X obj 184 313 s ch15;
#X obj 262 313 s ch16;
#X obj 28 364 s ch17;
#X obj 106 364 s ch18;
#X obj 184 364 s ch19;
#X obj 262 364 s ch20;
#X obj 28 415 s ch21;
#X obj 106 415 s ch22;
#X obj 184 415 s ch23;
#X obj 262 415 s ch24;
#X obj 28 466 s ch25;
#X obj 106 466 s ch26;
#X obj 184 466 s ch27;
#X obj 262 466 s ch28;
#X obj 28 517 s ch29;
#X obj 106 517 s ch30;
#X obj 184 517 s ch31;
#X obj 262 517 s ch32;
#X obj 28 136 list split 8;
#X obj 106 136 list split 8;
#X obj 184 136 list split 8;
#X obj 262 136 list split 8;
#X obj 28 187 list split 8;
#X obj 106 187 list split 8;
#X obj 184 187 list split 8;
#X obj 262 187 list split 8;
#X obj 28 238 list split 8;
#X obj 106 238 list split 8;
#X obj 184 238 list split 8;
#X obj 262 238 list split 8;
#X obj 28 289 list split 8;
#X obj 106 289 list split 8;
#X obj 184 289 list split 8;
#X obj 262 289 list split 8;
#X obj 28 340 list split 8;
#X obj 106 340 list split 8;
#X obj 184 340 list split 8;
#X obj 262 340 list split 8;
#X obj 262 391 list split 8;
#X obj 184 391 list split 8;
#X obj 106 391 list split 8;
#X obj 28 391 list split 8;
#X obj 262 442 list split 8;
#X obj 184 442 list split 8;
#X obj 106 442 list split 8;
#X obj 28 442 list split 8;
#X obj 28 493 list split 8;
#X obj 262 493 list split 8;
#X obj 184 493 list split 8;
#X obj 106 493 list split 8;
#X obj 515 132 soundfiler;
#X obj 515 101 coll module_samples.txt;
#C restore;
#X obj 681 132 route tempo totalLines;
#N canvas 615 23 450 300 counter32 0;
#X obj 191 161 bng 15 250 50 0 empty empty empty 17 7 0 10 -262144
-1 -1;
#X obj 191 222 f;
#X obj 243 222 + 1;
#X msg 267 160 0, f 1;
#X obj 214 160 sel 32;
#X msg 191 72 1;
#X obj 191 34 inlet;
#X obj 191 265 outlet;
#X obj 191 115 metro 10;
#X connect 0 0 1 0;
#X connect 1 0 2 0;
#X connect 1 0 4 0;
#X connect 1 0 7 0;
#X connect 2 0 1 1;
#X connect 3 0 1 0;
#X connect 3 0 8 0;
#X connect 4 0 3 0;
#X connect 5 0 8 0;
#X connect 6 0 5 0;
#X connect 8 0 0 0;
#X restore 515 72 pd counter32;
#X text 130 109 channel splitter;
#X connect 5 0 14 0;
#X connect 14 0 55 0;
#X connect 15 0 90 0;
#X connect 16 0 18 0;
#X connect 17 0 18 0;
#X connect 18 0 89 0;
#X connect 20 0 16 0;
#X connect 20 0 17 0;
#X connect 21 0 27 0;
#X connect 22 0 21 0;
#X connect 24 0 23 0;
#X connect 24 0 25 0;
#X connect 26 0 24 0;
#X connect 29 0 30 0;
#X connect 55 0 6 0;
#X connect 55 1 56 0;
#X connect 56 0 7 0;
#X connect 56 1 57 0;
#X connect 57 0 8 0;
#X connect 57 1 58 0;
#X connect 58 0 9 0;
#X connect 58 1 59 0;
#X connect 59 0 10 0;
#X connect 59 1 60 0;
#X connect 60 0 11 0;
#X connect 60 1 61 0;
#X connect 61 0 12 0;
#X connect 61 1 62 0;
#X connect 62 0 13 0;
#X connect 62 1 63 0;
#X connect 63 0 31 0;
#X connect 63 1 64 0;
#X connect 64 0 32 0;
#X connect 64 1 65 0;
#X connect 65 0 33 0;
#X connect 65 1 66 0;
#X connect 66 0 34 0;
#X connect 66 1 67 0;
#X connect 67 0 35 0;
#X connect 67 1 68 0;
#X connect 68 0 36 0;
#X connect 68 1 69 0;
#X connect 69 0 37 0;
#X connect 69 1 70 0;
#X connect 70 0 38 0;
#X connect 70 1 71 0;
#X connect 71 0 39 0;
#X connect 71 1 72 0;
#X connect 72 0 40 0;
#X connect 72 1 73 0;
#X connect 73 0 41 0;
#X connect 73 1 74 0;
#X connect 74 0 42 0;
#X connect 74 1 78 0;
#X connect 75 0 46 0;
#X connect 75 1 82 0;
#X connect 76 0 45 0;
#X connect 76 1 75 0;
#X connect 77 0 44 0;
#X connect 77 1 76 0;
#X connect 78 0 43 0;
#X connect 78 1 77 0;
#X connect 79 0 50 0;
#X connect 79 1 83 0;
#X connect 80 0 49 0;
#X connect 80 1 79 0;
#X connect 81 0 48 0;
#X connect 81 1 80 0;
#X connect 82 0 47 0;
#X connect 82 1 81 0;
#X connect 83 0 51 0;
#X connect 83 1 86 0;
#X connect 84 0 54 0;
#X connect 85 0 53 0;
#X connect 85 1 84 0;
#X connect 86 0 52 0;
#X connect 86 1 85 0;
#X connect 88 0 87 0;
#X connect 89 0 19 0;
#X connect 89 1 28 0;
#X connect 90 0 88 0;
